<svg id="Шар_1" data-name="Шар 1" xmlns="http://www.w3.org/2000/svg" viewBox="0 0 1633.01 196.85"><defs><style>.cls-1{fill:#fff;}</style></defs><path class="cls-1" d="M160,49.42a25.7,25.7,0,0,0-11.16-9.18A40.52,40.52,0,0,0,132,37H102.26l23.57,53.08H132a41.11,41.11,0,0,0,16.91-3.24A25.7,25.7,0,0,0,160,77.66a25.7,25.7,0,0,0,3.95-14A28,28,0,0,0,160,49.42Zm-19.8,22c-2.16,1.8-5.21,2.7-9.35,2.7H119.53V53h11.34c4.14,0,7.37.9,9.35,2.7a10.27,10.27,0,0,1,3.24,7.74C143.28,66.87,142.2,69.57,140.22,71.37Z" transform="translate(-67.35 -8.22)"/><path class="cls-1" d="M92,56.07,82.46,80h19.26Z" transform="translate(-67.35 -8.22)"/><path class="cls-1" d="M76.35,94.4,70.59,109h43L107.65,94.4Z" transform="translate(-67.35 -8.22)"/><path class="cls-1" d="M223.53,40.24a25.7,25.7,0,0,1,11.16,9.18,25.63,25.63,0,0,1,4,14,24.21,24.21,0,0,1-4,14,24.71,24.71,0,0,1-11.16,9.18,41.08,41.08,0,0,1-16.91,3.24H194v18.71H173.69V37h32.75A41.36,41.36,0,0,1,223.53,40.24Zm-8.81,31.13c2.15-1.8,3.23-4.32,3.23-7.74s-1.08-5.94-3.23-7.74-5.22-2.7-9.36-2.7H194V74.25h11.34C209.5,74.07,212.56,73.17,214.72,71.37Z" transform="translate(-67.35 -8.22)"/><path class="cls-1" d="M248.18,37h20.34V92.78H302.7v16H248.18V37Z" transform="translate(-67.35 -8.22)"/><path class="cls-1" d="M368.38,93.14v15.65H310.8V37h56.32V52.65H331V64.71H362.8V79.82H331V93h37.43Z" transform="translate(-67.35 -8.22)"/><path class="cls-1" d="M86.6,200.38a35.75,35.75,0,0,1-14-13.32c-3.6-5.57-5.22-12.05-5.22-19.25a36.17,36.17,0,0,1,5-19.25,35.75,35.75,0,0,1,14-13.32,45.07,45.07,0,0,1,20.34-4.67A44.29,44.29,0,0,1,124.57,134a34.67,34.67,0,0,1,13.13,10.08l-12.95,11.7c-4.68-5.58-10.26-8.46-16.91-8.46a21.84,21.84,0,0,0-10.44,2.52,18,18,0,0,0-7,7.2,22.71,22.71,0,0,0-2.52,10.79,23.86,23.86,0,0,0,2.52,10.8,16.86,16.86,0,0,0,7,7.19,20,20,0,0,0,10.44,2.52c6.65,0,12.23-2.88,16.91-8.45l12.95,11.69a34.67,34.67,0,0,1-13.13,10.08,43.11,43.11,0,0,1-17.81,3.42A39.71,39.71,0,0,1,86.6,200.38Z" transform="translate(-67.35 -8.22)"/><path class="cls-1" d="M146.7,132H167v71.8H146.7Z" transform="translate(-67.35 -8.22)"/><path class="cls-1" d="M196.72,148H174.77V132H239l14.69,16H217.05V203.8H196.72Z" transform="translate(-67.35 -8.22)"/><path class="cls-1" d="M283.27,178.07V203.8H262.94V177.71L235.59,132H257l17.09,28.43L291.19,132H310.8Z" transform="translate(-67.35 -8.22)"/><path class="cls-1" d="M322.85,184.9H304v18.9h18.89Z" transform="translate(-67.35 -8.22)"/><path class="cls-1" d="M611.46,99.12a23,23,0,0,0-10.37-8.57,38.14,38.14,0,0,0-15.72-3H557.94l21.91,49.54h5.69a38,38,0,0,0,15.72-3,22.64,22.64,0,0,0,14-21.66A24.72,24.72,0,0,0,611.46,99.12Zm-18.4,20.49c-2,1.68-4.85,2.52-8.69,2.52H573.83V102.48h10.54c3.84,0,6.85.84,8.69,2.52a9.61,9.61,0,0,1,3,7.22C596.07,115.41,595.07,117.93,593.06,119.61Z" transform="translate(-67.35 -8.22)"/><path class="cls-1" d="M548.41,105.33l-9,22.34h18.06Z" transform="translate(-67.35 -8.22)"/><path class="cls-1" d="M533.86,141.1l-5.35,13.61h40L563,141.1Z" transform="translate(-67.35 -8.22)"/><path class="cls-1" d="M670.49,90.55a22.66,22.66,0,0,1,14,21.67,22.71,22.71,0,0,1-3.68,13.1,22.94,22.94,0,0,1-10.37,8.56,37.94,37.94,0,0,1-15.72,3h-11.7v17.46H624.34V87.53h30.43A38.11,38.11,0,0,1,670.49,90.55Zm-8,29.06a8.83,8.83,0,0,0,3-7.22,8.85,8.85,0,0,0-3-7.23c-2-1.67-4.85-2.51-8.7-2.51H643.23V122.3h10.54C657.45,122.13,660.46,121.29,662.47,119.61Z" transform="translate(-67.35 -8.22)"/><path class="cls-1" d="M693.57,87.53h18.9v52.06h31.78v14.95H693.57Z" transform="translate(-67.35 -8.22)"/><path class="cls-1" d="M805.29,139.93v14.61H751.77v-67h52.35v14.61H770.51v11.25h29.6V127.5h-29.6v12.43Z" transform="translate(-67.35 -8.22)"/><path class="cls-1" d="M858,151.35a33.11,33.11,0,0,1-13-12.43,34.27,34.27,0,0,1-4.69-18,33.87,33.87,0,0,1,4.69-18,33.25,33.25,0,0,1,13-12.43A38.9,38.9,0,0,1,876.87,86a41.1,41.1,0,0,1,16.56,3.19,32.32,32.32,0,0,1,12.21,9.4l-12,10.92c-4.34-5.2-9.53-7.89-15.72-7.89a20.26,20.26,0,0,0-9.7,2.35,16.78,16.78,0,0,0-6.52,6.72,21.36,21.36,0,0,0-2.34,10.07,22.39,22.39,0,0,0,2.34,10.08,15.78,15.78,0,0,0,6.52,6.72,18.49,18.49,0,0,0,9.7,2.35c6.19,0,11.38-2.69,15.72-7.89l12,10.91a32.44,32.44,0,0,1-12.21,9.41,40,40,0,0,1-16.56,3.19A35.4,35.4,0,0,1,858,151.35Z" transform="translate(-67.35 -8.22)"/><path class="cls-1" d="M913.83,87.53h18.9v67h-18.9Z" transform="translate(-67.35 -8.22)"/><path class="cls-1" d="M960.32,102.48h-20.4v-15h59.7l15.6,15h-36v52.06h-18.9Z" transform="translate(-67.35 -8.22)"/><path class="cls-1" d="M1040.76,130.52v24h-18.89V130.19L996.45,87.53h19.9l15.89,26.54,15.88-26.54h18.23Z" transform="translate(-67.35 -8.22)"/><path class="cls-1" d="M1245.46,21.32a22.94,22.94,0,0,0-10.37-8.56,37.94,37.94,0,0,0-15.72-3H1192l21.91,49.55h5.68a38,38,0,0,0,15.72-3,23.87,23.87,0,0,0,10.37-8.56,24.06,24.06,0,0,0,3.68-13.1A24.75,24.75,0,0,0,1245.46,21.32Zm-18.39,20.49c-2,1.68-4.85,2.52-8.7,2.52h-10.54V24.68h10.54c3.85,0,6.86.84,8.7,2.52a9.61,9.61,0,0,1,3,7.22C1230.08,37.61,1229.07,40.13,1227.07,41.81Z" transform="translate(-67.35 -8.22)"/><path class="cls-1" d="M1182.41,27.54l-9,22.33h18.07Z" transform="translate(-67.35 -8.22)"/><path class="cls-1" d="M1167.86,63.31l-5.35,13.6h40L1197,63.31Z" transform="translate(-67.35 -8.22)"/><path class="cls-1" d="M1304.5,12.76a23.87,23.87,0,0,1,10.37,8.56,24.06,24.06,0,0,1,3.68,13.1,22.68,22.68,0,0,1-3.68,13.1,23,23,0,0,1-10.37,8.57,38.17,38.17,0,0,1-15.72,3h-11.71V76.58h-18.73V9.73h30.44A38,38,0,0,1,1304.5,12.76Zm-8,29.05c2-1.68,3-4,3-7.22s-1-5.54-3-7.22-4.85-2.52-8.69-2.52h-10.54V44.5h10.54C1291.46,44.33,1294.47,43.49,1296.47,41.81Z" transform="translate(-67.35 -8.22)"/><path class="cls-1" d="M1327.58,9.73h18.9V61.8h31.77V76.74h-50.67Z" transform="translate(-67.35 -8.22)"/><path class="cls-1" d="M1439.3,62.13V76.74h-53.52v-67h52.35V24.34h-33.62V35.6h29.6V49.7h-29.6V62.13Z" transform="translate(-67.35 -8.22)"/><path class="cls-1" d="M1492,73.55a33.21,33.21,0,0,1-13-12.43,34.26,34.26,0,0,1-4.68-18,33.89,33.89,0,0,1,4.68-18,33.25,33.25,0,0,1,13-12.42,38.75,38.75,0,0,1,18.89-4.54,41.07,41.07,0,0,1,16.56,3.19,32.44,32.44,0,0,1,12.21,9.41l-12,10.91c-4.35-5.2-9.53-7.89-15.72-7.89a20.23,20.23,0,0,0-9.7,2.35,16.66,16.66,0,0,0-6.52,6.72A21.28,21.28,0,0,0,1493.31,43a22.26,22.26,0,0,0,2.35,10.07,15.67,15.67,0,0,0,6.52,6.72,18.46,18.46,0,0,0,9.7,2.35c6.19,0,11.37-2.68,15.72-7.89l12,10.92a32.32,32.32,0,0,1-12.21,9.4,40,40,0,0,1-16.56,3.19A35.18,35.18,0,0,1,1492,73.55Z" transform="translate(-67.35 -8.22)"/><path class="cls-1" d="M1547.83,9.73h18.9v67h-18.9Z" transform="translate(-67.35 -8.22)"/><path class="cls-1" d="M1594.33,24.68h-20.41V9.73h59.71l15.6,15h-36V76.74h-18.89Z" transform="translate(-67.35 -8.22)"/><path class="cls-1" d="M1674.77,52.73v24h-18.9V52.39L1630.45,9.73h19.9l15.89,26.54,15.89-26.54h18.23Z" transform="translate(-67.35 -8.22)"/></svg>