<svg id="Шар_1" data-name="Шар 1" xmlns="http://www.w3.org/2000/svg" viewBox="0 0 1028.05 364.83"><defs><style>.cls-1{fill:#fff;}.cls-2{fill:none;stroke:#fff;stroke-miterlimit:10;stroke-width:2px;}</style></defs><path class="cls-1" d="M126.4,112.63a25.58,25.58,0,0,0-11.15-9.17,40.54,40.54,0,0,0-16.92-3.24H68.65L92.22,153.3h6.11a41.12,41.12,0,0,0,16.92-3.24,24.28,24.28,0,0,0,15.11-23.21A28,28,0,0,0,126.4,112.63Zm-19.79,22c-2.16,1.8-5.22,2.7-9.36,2.7H85.92v-21H97.25c4.14,0,7.38.9,9.36,2.7a10.27,10.27,0,0,1,3.24,7.74C109.67,130.09,108.59,132.78,106.61,134.58Z" transform="translate(-1.83 -1.83)"/><path class="cls-1" d="M58.39,119.29l-9.54,23.93H68.11Z" transform="translate(-1.83 -1.83)"/><path class="cls-1" d="M42.73,157.62,37,172.19H80L74,157.62Z" transform="translate(-1.83 -1.83)"/><path class="cls-1" d="M189.92,103.46A24.22,24.22,0,0,1,205,126.67a24.32,24.32,0,0,1-3.95,14,24.71,24.71,0,0,1-11.16,9.18A41.11,41.11,0,0,1,173,153.12h-12.6v18.71H140.08V100.22h32.75A41.39,41.39,0,0,1,189.92,103.46Zm-8.82,31.12c2.16-1.8,3.24-4.31,3.24-7.73s-1.08-5.94-3.24-7.74-5.21-2.7-9.35-2.7H160.41v21.05h11.34C175.89,137.28,178.94,136.38,181.1,134.58Z" transform="translate(-1.83 -1.83)"/><path class="cls-1" d="M214.57,100.22H234.9V156h34.19v16H214.57V100.22Z" transform="translate(-1.83 -1.83)"/><path class="cls-1" d="M334.77,156.36V172H277.19V100.22h56.32v15.65H297.34v12.06h31.85V143H297.34v13.14h37.43Z" transform="translate(-1.83 -1.83)"/><path class="cls-1" d="M53,263.6a35.69,35.69,0,0,1-14-13.32c-3.6-5.58-5.22-12.05-5.22-19.25a36.14,36.14,0,0,1,5-19.25,35.69,35.69,0,0,1,14-13.32,45.06,45.06,0,0,1,20.33-4.68A44.31,44.31,0,0,1,91,197.2a34.75,34.75,0,0,1,13.13,10.08L91.14,219c-4.68-5.58-10.26-8.45-16.92-8.45A21.91,21.91,0,0,0,63.79,213a18,18,0,0,0-7,7.2A22.78,22.78,0,0,0,54.25,231a23.79,23.79,0,0,0,2.52,10.79,16.93,16.93,0,0,0,7,7.2,19.92,19.92,0,0,0,10.43,2.52c6.66,0,12.24-2.88,16.92-8.46l13,11.7A34.75,34.75,0,0,1,91,264.86a43.13,43.13,0,0,1-17.82,3.41A39.79,39.79,0,0,1,53,263.6Z" transform="translate(-1.83 -1.83)"/><path class="cls-1" d="M113.09,195.22h20.33V267H113.09Z" transform="translate(-1.83 -1.83)"/><path class="cls-1" d="M163.11,211.24h-22v-16H205.4l14.69,16H183.44V267H163.11Z" transform="translate(-1.83 -1.83)"/><path class="cls-1" d="M249.66,241.28V267H229.33V240.92L202,195.22h21.41l17.09,28.43,17.1-28.43h19.61Z" transform="translate(-1.83 -1.83)"/><path class="cls-1" d="M289.24,248.12H270.35V267h18.89Z" transform="translate(-1.83 -1.83)"/><path class="cls-1" d="M575,162.34a23.06,23.06,0,0,0-10.37-8.57,38,38,0,0,0-15.72-3H521.48l21.91,49.54h5.68a38.14,38.14,0,0,0,15.72-3,22.66,22.66,0,0,0,14.05-21.67A24.68,24.68,0,0,0,575,162.34Zm-18.4,20.48c-2,1.68-4.85,2.52-8.7,2.52H537.37V165.69H547.9c3.85,0,6.86.84,8.7,2.52a9.61,9.61,0,0,1,3,7.23C559.61,178.63,558.61,181.15,556.6,182.82Z" transform="translate(-1.83 -1.83)"/><path class="cls-1" d="M512,168.55l-9,22.34H521Z" transform="translate(-1.83 -1.83)"/><path class="cls-1" d="M497.4,204.32l-5.35,13.6h40l-5.52-13.6Z" transform="translate(-1.83 -1.83)"/><path class="cls-1" d="M634,153.77a22.66,22.66,0,0,1,14.05,21.67,22.67,22.67,0,0,1-3.68,13.09A23,23,0,0,1,634,197.1a38,38,0,0,1-15.72,3H606.6v17.47H587.87V150.75h30.44A38,38,0,0,1,634,153.77Zm-8,29c2-1.67,3-4,3-7.22s-1-5.54-3-7.22-4.85-2.52-8.69-2.52H606.77v19.65h10.54C621,185.34,624,184.5,626,182.82Z" transform="translate(-1.83 -1.83)"/><path class="cls-1" d="M657.11,150.75H676v52.06h31.77v14.95H657.11Z" transform="translate(-1.83 -1.83)"/><path class="cls-1" d="M768.83,203.15v14.61H715.31v-67h52.35v14.61H734v11.25h29.6v14.11H734v12.43Z" transform="translate(-1.83 -1.83)"/><path class="cls-1" d="M821.51,214.57a33.35,33.35,0,0,1-13-12.43,34.38,34.38,0,0,1-4.68-18,33.93,33.93,0,0,1,4.68-18,33.21,33.21,0,0,1,13-12.43,38.87,38.87,0,0,1,18.9-4.53A40.85,40.85,0,0,1,857,152.43a32.32,32.32,0,0,1,12.21,9.4l-12,10.92c-4.35-5.21-9.53-7.9-15.72-7.9a20.12,20.12,0,0,0-9.7,2.36,16.76,16.76,0,0,0-6.52,6.71A21.31,21.31,0,0,0,822.85,184a22.33,22.33,0,0,0,2.34,10.08,15.75,15.75,0,0,0,6.52,6.71,18.47,18.47,0,0,0,9.7,2.36c6.19,0,11.37-2.69,15.72-7.9l12,10.92a32.32,32.32,0,0,1-12.21,9.4,39.81,39.81,0,0,1-16.55,3.19A35.28,35.28,0,0,1,821.51,214.57Z" transform="translate(-1.83 -1.83)"/><path class="cls-1" d="M877.37,150.75h18.89v67H877.37Z" transform="translate(-1.83 -1.83)"/><path class="cls-1" d="M923.86,165.69h-20.4V150.75h59.7l15.6,14.94h-36v52.07h-18.9Z" transform="translate(-1.83 -1.83)"/><path class="cls-1" d="M1004.3,193.74v24H985.4V193.41L960,150.75h19.9l15.89,26.53,15.89-26.53h18.23Z" transform="translate(-1.83 -1.83)"/><circle class="cls-2" cx="182.42" cy="182.42" r="181.42"/></svg>