<svg id="Layer_1" data-name="Layer 1" xmlns="http://www.w3.org/2000/svg" viewBox="0 0 70.42 14.04"><defs><style>.cls-1{fill:#231f20;}</style></defs><path class="cls-1" d="M8.77,17.24H4.54L6.88,4l5.58,6.81L18,4l2.34,13.24H16.15l-.65-5.15-3,4-3-4Z" transform="translate(-4.54 -3.74)"/><path class="cls-1" d="M26.39,13.83l.31.9-1.37,2.51h-4.5l7.11-13.5,7.11,13.5h-4.5l-1.33-2.38.27-1-1.55-3.47Zm-1.74-1.06h6.66v2.85H24.65Z" transform="translate(-4.54 -3.74)"/><path class="cls-1" d="M48.46,4.64l-4.09,6.22,4.36,6.38H43.78l-1.91-3.53-2,3.53H35l4.46-6.38-4-6.22h5l1.55,3,1.6-3Z" transform="translate(-4.54 -3.74)"/><path class="cls-1" d="M52.76,13.54a3.41,3.41,0,0,0,1,.69,2.69,2.69,0,0,0,1.11.23,1.52,1.52,0,0,0,.79-.19.64.64,0,0,0,.32-.6.61.61,0,0,0-.17-.43,2.43,2.43,0,0,0-.67-.42c-.34-.15-.85-.36-1.53-.62-.3-.13-.65-.29-1-.49a5.45,5.45,0,0,1-1.12-.79,4.28,4.28,0,0,1-.88-1.19,3.73,3.73,0,0,1-.35-1.66A3.21,3.21,0,0,1,50.91,6a4,4,0,0,1,1.76-1.28,6.5,6.5,0,0,1,2.41-.43,6.19,6.19,0,0,1,2.44.43A5.23,5.23,0,0,1,59.2,5.79a5.63,5.63,0,0,1,1,1.29L57.26,8.7a2.56,2.56,0,0,0-1.35-1.09,2,2,0,0,0-.7-.13,1.49,1.49,0,0,0-.68.14.49.49,0,0,0-.26.45.73.73,0,0,0,.37.62,3.91,3.91,0,0,0,1,.45L57,9.62a6.5,6.5,0,0,1,1.35.64,4.31,4.31,0,0,1,1,.86A3.29,3.29,0,0,1,60,12.2a4.09,4.09,0,0,1,.22,1.34,3.8,3.8,0,0,1-.44,1.85,3.69,3.69,0,0,1-1.16,1.32A5.31,5.31,0,0,1,57,17.5a6.41,6.41,0,0,1-1.89.28,7,7,0,0,1-2.52-.45,6,6,0,0,1-2-1.21,5.26,5.26,0,0,1-1.28-1.73l2.66-1.94A5.13,5.13,0,0,0,52.76,13.54Z" transform="translate(-4.54 -3.74)"/><path class="cls-1" d="M66.3,13.83l.3.9-1.36,2.51h-4.5l7.11-13.5L75,17.24h-4.5l-1.34-2.38.27-1-1.54-3.47Zm-1.75-1.06h6.66v2.85H64.55Z" transform="translate(-4.54 -3.74)"/></svg>