<svg id="Шар_1" data-name="Шар 1" xmlns="http://www.w3.org/2000/svg" viewBox="0 0 364.83 364.83"><defs><style>.cls-1{fill:#fff;}.cls-2{fill:none;stroke:#fff;stroke-miterlimit:10;stroke-width:2px;}</style></defs><path class="cls-1" d="M126.4,112.63a25.58,25.58,0,0,0-11.15-9.17,40.54,40.54,0,0,0-16.92-3.24H68.65L92.22,153.3h6.11a41.12,41.12,0,0,0,16.92-3.24,24.28,24.28,0,0,0,15.11-23.21A28,28,0,0,0,126.4,112.63Zm-19.79,22c-2.16,1.8-5.22,2.7-9.36,2.7H85.92v-21H97.25c4.14,0,7.38.9,9.36,2.7a10.27,10.27,0,0,1,3.24,7.74C109.67,130.09,108.59,132.78,106.61,134.58Z" transform="translate(-1.83 -1.83)"/><path class="cls-1" d="M58.39,119.29l-9.54,23.93H68.11Z" transform="translate(-1.83 -1.83)"/><path class="cls-1" d="M42.73,157.62,37,172.19H80L74,157.62Z" transform="translate(-1.83 -1.83)"/><path class="cls-1" d="M189.92,103.46A24.22,24.22,0,0,1,205,126.67a24.32,24.32,0,0,1-3.95,14,24.71,24.71,0,0,1-11.16,9.18A41.11,41.11,0,0,1,173,153.12h-12.6v18.71H140.08V100.22h32.75A41.39,41.39,0,0,1,189.92,103.46Zm-8.82,31.12c2.16-1.8,3.24-4.31,3.24-7.73s-1.08-5.94-3.24-7.74-5.21-2.7-9.35-2.7H160.41v21.05h11.34C175.89,137.28,178.94,136.38,181.1,134.58Z" transform="translate(-1.83 -1.83)"/><path class="cls-1" d="M214.57,100.22H234.9V156h34.19v16H214.57V100.22Z" transform="translate(-1.83 -1.83)"/><path class="cls-1" d="M334.77,156.36V172H277.19V100.22h56.32v15.65H297.34v12.06h31.85V143H297.34v13.14h37.43Z" transform="translate(-1.83 -1.83)"/><path class="cls-1" d="M53,263.6a35.69,35.69,0,0,1-14-13.32c-3.6-5.58-5.22-12.05-5.22-19.25a36.14,36.14,0,0,1,5-19.25,35.69,35.69,0,0,1,14-13.32,45.06,45.06,0,0,1,20.33-4.68A44.31,44.31,0,0,1,91,197.2a34.75,34.75,0,0,1,13.13,10.08L91.14,219c-4.68-5.58-10.26-8.45-16.92-8.45A21.91,21.91,0,0,0,63.79,213a18,18,0,0,0-7,7.2A22.78,22.78,0,0,0,54.25,231a23.79,23.79,0,0,0,2.52,10.79,16.93,16.93,0,0,0,7,7.2,19.92,19.92,0,0,0,10.43,2.52c6.66,0,12.24-2.88,16.92-8.46l13,11.7A34.75,34.75,0,0,1,91,264.86a43.13,43.13,0,0,1-17.82,3.41A39.79,39.79,0,0,1,53,263.6Z" transform="translate(-1.83 -1.83)"/><path class="cls-1" d="M113.09,195.22h20.33V267H113.09Z" transform="translate(-1.83 -1.83)"/><path class="cls-1" d="M163.11,211.24h-22v-16H205.4l14.69,16H183.44V267H163.11Z" transform="translate(-1.83 -1.83)"/><path class="cls-1" d="M249.66,241.28V267H229.33V240.92L202,195.22h21.41l17.09,28.43,17.1-28.43h19.61Z" transform="translate(-1.83 -1.83)"/><path class="cls-1" d="M289.24,248.12H270.35V267h18.89Z" transform="translate(-1.83 -1.83)"/><circle class="cls-2" cx="182.42" cy="182.42" r="181.42"/></svg>